REM DIRINDEX 1\2\5,1\2\6,1\2\7,1\2\8,1\3\9,1\3\10,1\3\11,1\4\12,1\4\13,1\4\14,1\4\15,1\4\16
REM DIRNAME cjc034,folder01,folder02,folder03,folder04,folder05,folder06,folder07,folder08,folder09,folder10,folder11,folder12,folder13,folder14,folder15
TITLE ""
FILE "1200_2_sec03_0889_0906.mp3" MP3
  TRACK 01 AUDIO
    TITLE "0:"
    INDEX 01 00:00:00
  TRACK 02 AUDIO
    TITLE "10:cjc034_01831"
    INDEX 01 00:00:15
  TRACK 03 AUDIO
    TITLE "0:"
    INDEX 01 00:01:28
  TRACK 04 AUDIO
    TITLE "9:cjc034_01832"
    INDEX 01 00:01:36
  TRACK 05 AUDIO
    TITLE "0:"
    INDEX 01 00:02:40
  TRACK 06 AUDIO
    TITLE "10:cjc034_01833"
    INDEX 01 00:03:23
  TRACK 07 AUDIO
    TITLE "0:"
    INDEX 01 00:04:31
  TRACK 08 AUDIO
    TITLE "9:cjc034_01834"
    INDEX 01 00:04:46
  TRACK 09 AUDIO
    TITLE "0:"
    INDEX 01 00:05:46
  TRACK 10 AUDIO
    TITLE "10:cjc034_01835"
    INDEX 01 00:06:33
  TRACK 11 AUDIO
    TITLE "0:"
    INDEX 01 00:07:31
  TRACK 12 AUDIO
    TITLE "9:cjc034_01836"
    INDEX 01 00:07:43
  TRACK 13 AUDIO
    TITLE "0:"
    INDEX 01 00:08:46
  TRACK 14 AUDIO
    TITLE "10:cjc034_01837"
    INDEX 01 00:09:28
  TRACK 15 AUDIO
    TITLE "0:"
    INDEX 01 00:11:54
  TRACK 16 AUDIO
    TITLE "9:cjc034_01838"
    INDEX 01 00:11:56
  TRACK 17 AUDIO
    TITLE "0:"
    INDEX 01 00:12:56
  TRACK 18 AUDIO
    TITLE "10:cjc034_01839"
    INDEX 01 00:13:41
  TRACK 19 AUDIO
    TITLE "0:"
    INDEX 01 00:15:11
  TRACK 20 AUDIO
    TITLE "9:cjc034_01840"
    INDEX 01 00:15:21
  TRACK 21 AUDIO
    TITLE "0:"
    INDEX 01 00:16:44
  TRACK 22 AUDIO
    TITLE "10:cjc034_01841"
    INDEX 01 00:17:27
  TRACK 23 AUDIO
    TITLE "0:"
    INDEX 01 00:18:56
  TRACK 24 AUDIO
    TITLE "9:cjc034_01842"
    INDEX 01 00:18:64
  TRACK 25 AUDIO
    TITLE "0:"
    INDEX 01 00:20:00
  TRACK 26 AUDIO
    TITLE "10:cjc034_01843"
    INDEX 01 00:20:55
  TRACK 27 AUDIO
    TITLE "0:"
    INDEX 01 00:21:57
  TRACK 28 AUDIO
    TITLE "9:cjc034_01844"
    INDEX 01 00:21:62
  TRACK 29 AUDIO
    TITLE "0:"
    INDEX 01 00:22:64
  TRACK 30 AUDIO
    TITLE "10:cjc034_01845"
    INDEX 01 00:23:48
  TRACK 31 AUDIO
    TITLE "0:"
    INDEX 01 00:24:39
  TRACK 32 AUDIO
    TITLE "9:cjc034_01846"
    INDEX 01 00:24:41
  TRACK 33 AUDIO
    TITLE "0:"
    INDEX 01 00:25:50
  TRACK 34 AUDIO
    TITLE "10:cjc034_01847"
    INDEX 01 00:26:34
  TRACK 35 AUDIO
    TITLE "0:"
    INDEX 01 00:27:47
  TRACK 36 AUDIO
    TITLE "9:cjc034_01848"
    INDEX 01 00:27:49
  TRACK 37 AUDIO
    TITLE "0:"
    INDEX 01 00:28:57
  TRACK 38 AUDIO
    TITLE "11:cjc034_01849"
    INDEX 01 00:30:32
  TRACK 39 AUDIO
    TITLE "0:"
    INDEX 01 00:35:19
  TRACK 40 AUDIO
    TITLE "10:cjc034_01850"
    INDEX 01 00:36:23
  TRACK 41 AUDIO
    TITLE "0:"
    INDEX 01 00:37:42
  TRACK 42 AUDIO
    TITLE "9:cjc034_01851"
    INDEX 01 00:37:46
  TRACK 43 AUDIO
    TITLE "0:"
    INDEX 01 00:38:67
  TRACK 44 AUDIO
    TITLE "10:cjc034_01852"
    INDEX 01 00:39:51
  TRACK 45 AUDIO
    TITLE "0:"
    INDEX 01 00:40:70
  TRACK 46 AUDIO
    TITLE "9:cjc034_01853"
    INDEX 01 00:41:04
  TRACK 47 AUDIO
    TITLE "0:"
    INDEX 01 00:42:31
  TRACK 48 AUDIO
    TITLE "10:cjc034_01854"
    INDEX 01 00:43:15
  TRACK 49 AUDIO
    TITLE "0:"
    INDEX 01 00:44:40
  TRACK 50 AUDIO
    TITLE "9:cjc034_01855"
    INDEX 01 00:44:42
  TRACK 51 AUDIO
    TITLE "0:"
    INDEX 01 00:45:73
  TRACK 52 AUDIO
    TITLE "10:cjc034_01856"
    INDEX 01 00:46:54
  TRACK 53 AUDIO
    TITLE "0:"
    INDEX 01 00:47:54
  TRACK 54 AUDIO
    TITLE "9:cjc034_01857"
    INDEX 01 00:47:60
  TRACK 55 AUDIO
    TITLE "0:"
    INDEX 01 00:49:02
  TRACK 56 AUDIO
    TITLE "10:cjc034_01858"
    INDEX 01 00:49:61
  TRACK 57 AUDIO
    TITLE "0:"
    INDEX 01 00:50:74
  TRACK 58 AUDIO
    TITLE "9:cjc034_01859"
    INDEX 01 00:51:05
  TRACK 59 AUDIO
    TITLE "0:"
    INDEX 01 00:52:10
  TRACK 60 AUDIO
    TITLE "10:cjc034_01860"
    INDEX 01 00:52:71
  TRACK 61 AUDIO
    TITLE "0:"
    INDEX 01 00:54:01
  TRACK 62 AUDIO
    TITLE "9:cjc034_01861"
    INDEX 01 00:54:05
  TRACK 63 AUDIO
    TITLE "0:"
    INDEX 01 00:55:28
  TRACK 64 AUDIO
    TITLE "10:cjc034_01862"
    INDEX 01 00:58:09
  TRACK 65 AUDIO
    TITLE "0:"
    INDEX 01 00:59:14
  TRACK 66 AUDIO
    TITLE "9:cjc034_01863"
    INDEX 01 00:59:16
  TRACK 67 AUDIO
    TITLE "0:"
    INDEX 01 01:00:35
  TRACK 68 AUDIO
    TITLE "10:cjc034_01864"
    INDEX 01 01:03:18
  TRACK 69 AUDIO
    TITLE "0:"
    INDEX 01 01:04:25
  TRACK 70 AUDIO
    TITLE "9:cjc034_01865"
    INDEX 01 01:04:37
  TRACK 71 AUDIO
    TITLE "0:"
    INDEX 01 01:05:40
  TRACK 72 AUDIO
    TITLE "10:cjc034_01866"
    INDEX 01 01:06:26
  TRACK 73 AUDIO
    TITLE "0:"
    INDEX 01 01:07:10
  TRACK 74 AUDIO
    TITLE "9:cjc034_01867"
    INDEX 01 01:07:15
  TRACK 75 AUDIO
    TITLE "0:"
    INDEX 01 01:08:31
